<?xml version="1.0" encoding="utf-8" standalone="no"?>
<!DOCTYPE svg PUBLIC "-//W3C//DTD SVG 1.1//EN"
  "http://www.w3.org/Graphics/SVG/1.1/DTD/svg11.dtd">
<svg xmlns:xlink="http://www.w3.org/1999/xlink" width="460.8pt" height="345.6pt" viewBox="0 0 460.8 345.6" xmlns="http://www.w3.org/2000/svg" version="1.1">
 <metadata>
  <rdf:RDF xmlns:dc="http://purl.org/dc/elements/1.1/" xmlns:cc="http://creativecommons.org/ns#" xmlns:rdf="http://www.w3.org/1999/02/22-rdf-syntax-ns#">
   <cc:Work>
    <dc:type rdf:resource="http://purl.org/dc/dcmitype/StillImage"/>
    <dc:date>2023-06-03T09:17:15.127158</dc:date>
    <dc:format>image/svg+xml</dc:format>
    <dc:creator>
     <cc:Agent>
      <dc:title>Matplotlib v3.7.1, https://matplotlib.org/</dc:title>
     </cc:Agent>
    </dc:creator>
   </cc:Work>
  </rdf:RDF>
 </metadata>
 <defs>
  <style type="text/css">*{stroke-linejoin: round; stroke-linecap: butt}</style>
 </defs>
 <g id="figure_1">
  <g id="patch_1">
   <path d="M 0 345.6 
L 460.8 345.6 
L 460.8 0 
L 0 0 
z
" style="fill: #ffffff"/>
  </g>
  <g id="axes_1">
   <g id="LineCollection_1">
    <path d="M 179.583844 211.452908 
L 158.118161 253.370103 
" clip-path="url(#pf83d13f73b)" style="fill: none; stroke: #000000"/>
    <path d="M 179.583844 211.452908 
L 139.745648 261.813921 
" clip-path="url(#pf83d13f73b)" style="fill: none; stroke: #000000"/>
    <path d="M 179.583844 211.452908 
L 234.97923 144.958459 
" clip-path="url(#pf83d13f73b)" style="fill: none; stroke: #000000"/>
    <path d="M 158.118161 253.370103 
L 138.973262 287.049918 
" clip-path="url(#pf83d13f73b)" style="fill: none; stroke: #000000"/>
    <path d="M 139.745648 261.813921 
L 138.973262 287.049918 
" clip-path="url(#pf83d13f73b)" style="fill: none; stroke: #000000"/>
    <path d="M 139.745648 261.813921 
L 112.284792 296.045963 
" clip-path="url(#pf83d13f73b)" style="fill: none; stroke: #000000"/>
    <path d="M 138.973262 287.049918 
L 119.31223 315.609917 
" clip-path="url(#pf83d13f73b)" style="fill: none; stroke: #000000"/>
    <path d="M 112.284792 296.045963 
L 119.31223 315.609917 
" clip-path="url(#pf83d13f73b)" style="fill: none; stroke: #000000"/>
    <path d="M 234.97923 144.958459 
L 356.535083 177.965019 
" clip-path="url(#pf83d13f73b)" style="fill: none; stroke: #000000"/>
    <path d="M 234.97923 144.958459 
L 351.244237 109.746551 
" clip-path="url(#pf83d13f73b)" style="fill: none; stroke: #000000"/>
    <path d="M 234.97923 144.958459 
L 255.51497 208.941369 
" clip-path="url(#pf83d13f73b)" style="fill: none; stroke: #000000"/>
    <path d="M 234.97923 144.958459 
L 260.052475 66.90956 
" clip-path="url(#pf83d13f73b)" style="fill: none; stroke: #000000"/>
    <path d="M 234.97923 144.958459 
L 141.272816 91.631008 
" clip-path="url(#pf83d13f73b)" style="fill: none; stroke: #000000"/>
    <path d="M 234.97923 144.958459 
L 103.265123 159.763953 
" clip-path="url(#pf83d13f73b)" style="fill: none; stroke: #000000"/>
    <path d="M 356.535083 177.965019 
L 370.601762 200.837305 
" clip-path="url(#pf83d13f73b)" style="fill: none; stroke: #000000"/>
    <path d="M 356.535083 177.965019 
L 420.813223 175.405273 
" clip-path="url(#pf83d13f73b)" style="fill: none; stroke: #000000"/>
    <path d="M 356.535083 177.965019 
L 390.274707 209.587771 
" clip-path="url(#pf83d13f73b)" style="fill: none; stroke: #000000"/>
    <path d="M 356.535083 177.965019 
L 418.604505 188.750689 
" clip-path="url(#pf83d13f73b)" style="fill: none; stroke: #000000"/>
    <path d="M 356.535083 177.965019 
L 407.449921 199.532462 
" clip-path="url(#pf83d13f73b)" style="fill: none; stroke: #000000"/>
    <path d="M 356.535083 177.965019 
L 398.528252 168.422227 
" clip-path="url(#pf83d13f73b)" style="fill: none; stroke: #000000"/>
    <path d="M 351.244237 109.746551 
L 414.680539 111.349564 
" clip-path="url(#pf83d13f73b)" style="fill: none; stroke: #000000"/>
    <path d="M 351.244237 109.746551 
L 391.739644 118.615668 
" clip-path="url(#pf83d13f73b)" style="fill: none; stroke: #000000"/>
    <path d="M 351.244237 109.746551 
L 403.751253 86.055656 
" clip-path="url(#pf83d13f73b)" style="fill: none; stroke: #000000"/>
    <path d="M 351.244237 109.746551 
L 358.175892 86.039095 
" clip-path="url(#pf83d13f73b)" style="fill: none; stroke: #000000"/>
    <path d="M 351.244237 109.746551 
L 382.2014 80.720426 
" clip-path="url(#pf83d13f73b)" style="fill: none; stroke: #000000"/>
    <path d="M 351.244237 109.746551 
L 410.340912 98.38144 
" clip-path="url(#pf83d13f73b)" style="fill: none; stroke: #000000"/>
    <path d="M 255.51497 208.941369 
L 248.866088 243.086885 
" clip-path="url(#pf83d13f73b)" style="fill: none; stroke: #000000"/>
    <path d="M 255.51497 208.941369 
L 293.927969 220.502711 
" clip-path="url(#pf83d13f73b)" style="fill: none; stroke: #000000"/>
    <path d="M 255.51497 208.941369 
L 221.722449 210.515268 
" clip-path="url(#pf83d13f73b)" style="fill: none; stroke: #000000"/>
    <path d="M 255.51497 208.941369 
L 229.648757 232.772341 
" clip-path="url(#pf83d13f73b)" style="fill: none; stroke: #000000"/>
    <path d="M 255.51497 208.941369 
L 272.4714 242.270201 
" clip-path="url(#pf83d13f73b)" style="fill: none; stroke: #000000"/>
    <path d="M 255.51497 208.941369 
L 294.110233 236.175946 
" clip-path="url(#pf83d13f73b)" style="fill: none; stroke: #000000"/>
    <path d="M 260.052475 66.90956 
L 238.463188 31.956694 
" clip-path="url(#pf83d13f73b)" style="fill: none; stroke: #000000"/>
    <path d="M 260.052475 66.90956 
L 284.690651 29.990083 
" clip-path="url(#pf83d13f73b)" style="fill: none; stroke: #000000"/>
    <path d="M 260.052475 66.90956 
L 261.741407 31.008326 
" clip-path="url(#pf83d13f73b)" style="fill: none; stroke: #000000"/>
    <path d="M 260.052475 66.90956 
L 286.259197 48.659036 
" clip-path="url(#pf83d13f73b)" style="fill: none; stroke: #000000"/>
    <path d="M 260.052475 66.90956 
L 230.291785 45.954249 
" clip-path="url(#pf83d13f73b)" style="fill: none; stroke: #000000"/>
    <path d="M 260.052475 66.90956 
L 306.643544 41.014033 
" clip-path="url(#pf83d13f73b)" style="fill: none; stroke: #000000"/>
    <path d="M 141.272816 91.631008 
L 104.312015 61.643945 
" clip-path="url(#pf83d13f73b)" style="fill: none; stroke: #000000"/>
    <path d="M 141.272816 91.631008 
L 126.512462 56.752379 
" clip-path="url(#pf83d13f73b)" style="fill: none; stroke: #000000"/>
    <path d="M 141.272816 91.631008 
L 80.832685 82.733976 
" clip-path="url(#pf83d13f73b)" style="fill: none; stroke: #000000"/>
    <path d="M 141.272816 91.631008 
L 96.794884 94.46308 
" clip-path="url(#pf83d13f73b)" style="fill: none; stroke: #000000"/>
    <path d="M 141.272816 91.631008 
L 91.27089 71.305754 
" clip-path="url(#pf83d13f73b)" style="fill: none; stroke: #000000"/>
    <path d="M 141.272816 91.631008 
L 145.136545 66.900978 
" clip-path="url(#pf83d13f73b)" style="fill: none; stroke: #000000"/>
    <path d="M 103.265123 159.763953 
L 39.986777 172.162929 
" clip-path="url(#pf83d13f73b)" style="fill: none; stroke: #000000"/>
    <path d="M 103.265123 159.763953 
L 67.745108 143.472421 
" clip-path="url(#pf83d13f73b)" style="fill: none; stroke: #000000"/>
    <path d="M 103.265123 159.763953 
L 47.082466 160.587962 
" clip-path="url(#pf83d13f73b)" style="fill: none; stroke: #000000"/>
    <path d="M 103.265123 159.763953 
L 81.854278 183.348439 
" clip-path="url(#pf83d13f73b)" style="fill: none; stroke: #000000"/>
    <path d="M 103.265123 159.763953 
L 55.702299 182.963671 
" clip-path="url(#pf83d13f73b)" style="fill: none; stroke: #000000"/>
    <path d="M 103.265123 159.763953 
L 41.802474 147.475027 
" clip-path="url(#pf83d13f73b)" style="fill: none; stroke: #000000"/>
   </g>
   <g id="PathCollection_1">
    <defs>
     <path id="m376784ef9c" d="M 0 8.660254 
C 2.296726 8.660254 4.499694 7.747755 6.123724 6.123724 
C 7.747755 4.499694 8.660254 2.296726 8.660254 0 
C 8.660254 -2.296726 7.747755 -4.499694 6.123724 -6.123724 
C 4.499694 -7.747755 2.296726 -8.660254 0 -8.660254 
C -2.296726 -8.660254 -4.499694 -7.747755 -6.123724 -6.123724 
C -7.747755 -4.499694 -8.660254 -2.296726 -8.660254 0 
C -8.660254 2.296726 -7.747755 4.499694 -6.123724 6.123724 
C -4.499694 7.747755 -2.296726 8.660254 0 8.660254 
z
" style="stroke: #1f78b4"/>
    </defs>
    <g clip-path="url(#pf83d13f73b)">
     <use xlink:href="#m376784ef9c" x="179.583844" y="211.452908" style="fill: #1f78b4; stroke: #1f78b4"/>
     <use xlink:href="#m376784ef9c" x="158.118161" y="253.370103" style="fill: #1f78b4; stroke: #1f78b4"/>
     <use xlink:href="#m376784ef9c" x="139.745648" y="261.813921" style="fill: #1f78b4; stroke: #1f78b4"/>
     <use xlink:href="#m376784ef9c" x="138.973262" y="287.049918" style="fill: #1f78b4; stroke: #1f78b4"/>
     <use xlink:href="#m376784ef9c" x="112.284792" y="296.045963" style="fill: #1f78b4; stroke: #1f78b4"/>
     <use xlink:href="#m376784ef9c" x="119.31223" y="315.609917" style="fill: #1f78b4; stroke: #1f78b4"/>
     <use xlink:href="#m376784ef9c" x="234.97923" y="144.958459" style="fill: #1f78b4; stroke: #1f78b4"/>
     <use xlink:href="#m376784ef9c" x="356.535083" y="177.965019" style="fill: #1f78b4; stroke: #1f78b4"/>
     <use xlink:href="#m376784ef9c" x="351.244237" y="109.746551" style="fill: #1f78b4; stroke: #1f78b4"/>
     <use xlink:href="#m376784ef9c" x="255.51497" y="208.941369" style="fill: #1f78b4; stroke: #1f78b4"/>
     <use xlink:href="#m376784ef9c" x="260.052475" y="66.90956" style="fill: #1f78b4; stroke: #1f78b4"/>
     <use xlink:href="#m376784ef9c" x="141.272816" y="91.631008" style="fill: #1f78b4; stroke: #1f78b4"/>
     <use xlink:href="#m376784ef9c" x="103.265123" y="159.763953" style="fill: #1f78b4; stroke: #1f78b4"/>
     <use xlink:href="#m376784ef9c" x="370.601762" y="200.837305" style="fill: #1f78b4; stroke: #1f78b4"/>
     <use xlink:href="#m376784ef9c" x="420.813223" y="175.405273" style="fill: #1f78b4; stroke: #1f78b4"/>
     <use xlink:href="#m376784ef9c" x="390.274707" y="209.587771" style="fill: #1f78b4; stroke: #1f78b4"/>
     <use xlink:href="#m376784ef9c" x="418.604505" y="188.750689" style="fill: #1f78b4; stroke: #1f78b4"/>
     <use xlink:href="#m376784ef9c" x="407.449921" y="199.532462" style="fill: #1f78b4; stroke: #1f78b4"/>
     <use xlink:href="#m376784ef9c" x="398.528252" y="168.422227" style="fill: #1f78b4; stroke: #1f78b4"/>
     <use xlink:href="#m376784ef9c" x="414.680539" y="111.349564" style="fill: #1f78b4; stroke: #1f78b4"/>
     <use xlink:href="#m376784ef9c" x="391.739644" y="118.615668" style="fill: #1f78b4; stroke: #1f78b4"/>
     <use xlink:href="#m376784ef9c" x="403.751253" y="86.055656" style="fill: #1f78b4; stroke: #1f78b4"/>
     <use xlink:href="#m376784ef9c" x="358.175892" y="86.039095" style="fill: #1f78b4; stroke: #1f78b4"/>
     <use xlink:href="#m376784ef9c" x="382.2014" y="80.720426" style="fill: #1f78b4; stroke: #1f78b4"/>
     <use xlink:href="#m376784ef9c" x="410.340912" y="98.38144" style="fill: #1f78b4; stroke: #1f78b4"/>
     <use xlink:href="#m376784ef9c" x="248.866088" y="243.086885" style="fill: #1f78b4; stroke: #1f78b4"/>
     <use xlink:href="#m376784ef9c" x="293.927969" y="220.502711" style="fill: #1f78b4; stroke: #1f78b4"/>
     <use xlink:href="#m376784ef9c" x="221.722449" y="210.515268" style="fill: #1f78b4; stroke: #1f78b4"/>
     <use xlink:href="#m376784ef9c" x="229.648757" y="232.772341" style="fill: #1f78b4; stroke: #1f78b4"/>
     <use xlink:href="#m376784ef9c" x="272.4714" y="242.270201" style="fill: #1f78b4; stroke: #1f78b4"/>
     <use xlink:href="#m376784ef9c" x="294.110233" y="236.175946" style="fill: #1f78b4; stroke: #1f78b4"/>
     <use xlink:href="#m376784ef9c" x="238.463188" y="31.956694" style="fill: #1f78b4; stroke: #1f78b4"/>
     <use xlink:href="#m376784ef9c" x="284.690651" y="29.990083" style="fill: #1f78b4; stroke: #1f78b4"/>
     <use xlink:href="#m376784ef9c" x="261.741407" y="31.008326" style="fill: #1f78b4; stroke: #1f78b4"/>
     <use xlink:href="#m376784ef9c" x="286.259197" y="48.659036" style="fill: #1f78b4; stroke: #1f78b4"/>
     <use xlink:href="#m376784ef9c" x="230.291785" y="45.954249" style="fill: #1f78b4; stroke: #1f78b4"/>
     <use xlink:href="#m376784ef9c" x="306.643544" y="41.014033" style="fill: #1f78b4; stroke: #1f78b4"/>
     <use xlink:href="#m376784ef9c" x="104.312015" y="61.643945" style="fill: #1f78b4; stroke: #1f78b4"/>
     <use xlink:href="#m376784ef9c" x="126.512462" y="56.752379" style="fill: #1f78b4; stroke: #1f78b4"/>
     <use xlink:href="#m376784ef9c" x="80.832685" y="82.733976" style="fill: #1f78b4; stroke: #1f78b4"/>
     <use xlink:href="#m376784ef9c" x="96.794884" y="94.46308" style="fill: #1f78b4; stroke: #1f78b4"/>
     <use xlink:href="#m376784ef9c" x="91.27089" y="71.305754" style="fill: #1f78b4; stroke: #1f78b4"/>
     <use xlink:href="#m376784ef9c" x="145.136545" y="66.900978" style="fill: #1f78b4; stroke: #1f78b4"/>
     <use xlink:href="#m376784ef9c" x="39.986777" y="172.162929" style="fill: #1f78b4; stroke: #1f78b4"/>
     <use xlink:href="#m376784ef9c" x="67.745108" y="143.472421" style="fill: #1f78b4; stroke: #1f78b4"/>
     <use xlink:href="#m376784ef9c" x="47.082466" y="160.587962" style="fill: #1f78b4; stroke: #1f78b4"/>
     <use xlink:href="#m376784ef9c" x="81.854278" y="183.348439" style="fill: #1f78b4; stroke: #1f78b4"/>
     <use xlink:href="#m376784ef9c" x="55.702299" y="182.963671" style="fill: #1f78b4; stroke: #1f78b4"/>
     <use xlink:href="#m376784ef9c" x="41.802474" y="147.475027" style="fill: #1f78b4; stroke: #1f78b4"/>
    </g>
   </g>
   <g id="text_1">
    <g clip-path="url(#pf83d13f73b)">
     <!-- 1 -->
     <g transform="translate(175.766344 214.764158) scale(0.12 -0.12)">
      <defs>
       <path id="DejaVuSans-31" d="M 794 531 
L 1825 531 
L 1825 4091 
L 703 3866 
L 703 4441 
L 1819 4666 
L 2450 4666 
L 2450 531 
L 3481 531 
L 3481 0 
L 794 0 
L 794 531 
z
" transform="scale(0.015625)"/>
      </defs>
      <use xlink:href="#DejaVuSans-31"/>
     </g>
    </g>
   </g>
   <g id="text_2">
    <g clip-path="url(#pf83d13f73b)">
     <!-- 2 -->
     <g transform="translate(154.300661 256.681353) scale(0.12 -0.12)">
      <defs>
       <path id="DejaVuSans-32" d="M 1228 531 
L 3431 531 
L 3431 0 
L 469 0 
L 469 531 
Q 828 903 1448 1529 
Q 2069 2156 2228 2338 
Q 2531 2678 2651 2914 
Q 2772 3150 2772 3378 
Q 2772 3750 2511 3984 
Q 2250 4219 1831 4219 
Q 1534 4219 1204 4116 
Q 875 4013 500 3803 
L 500 4441 
Q 881 4594 1212 4672 
Q 1544 4750 1819 4750 
Q 2544 4750 2975 4387 
Q 3406 4025 3406 3419 
Q 3406 3131 3298 2873 
Q 3191 2616 2906 2266 
Q 2828 2175 2409 1742 
Q 1991 1309 1228 531 
z
" transform="scale(0.015625)"/>
      </defs>
      <use xlink:href="#DejaVuSans-32"/>
     </g>
    </g>
   </g>
   <g id="text_3">
    <g clip-path="url(#pf83d13f73b)">
     <!-- 3 -->
     <g transform="translate(135.928148 265.125171) scale(0.12 -0.12)">
      <defs>
       <path id="DejaVuSans-33" d="M 2597 2516 
Q 3050 2419 3304 2112 
Q 3559 1806 3559 1356 
Q 3559 666 3084 287 
Q 2609 -91 1734 -91 
Q 1441 -91 1130 -33 
Q 819 25 488 141 
L 488 750 
Q 750 597 1062 519 
Q 1375 441 1716 441 
Q 2309 441 2620 675 
Q 2931 909 2931 1356 
Q 2931 1769 2642 2001 
Q 2353 2234 1838 2234 
L 1294 2234 
L 1294 2753 
L 1863 2753 
Q 2328 2753 2575 2939 
Q 2822 3125 2822 3475 
Q 2822 3834 2567 4026 
Q 2313 4219 1838 4219 
Q 1578 4219 1281 4162 
Q 984 4106 628 3988 
L 628 4550 
Q 988 4650 1302 4700 
Q 1616 4750 1894 4750 
Q 2613 4750 3031 4423 
Q 3450 4097 3450 3541 
Q 3450 3153 3228 2886 
Q 3006 2619 2597 2516 
z
" transform="scale(0.015625)"/>
      </defs>
      <use xlink:href="#DejaVuSans-33"/>
     </g>
    </g>
   </g>
   <g id="text_4">
    <g clip-path="url(#pf83d13f73b)">
     <!-- 4 -->
     <g transform="translate(135.155762 290.361168) scale(0.12 -0.12)">
      <defs>
       <path id="DejaVuSans-34" d="M 2419 4116 
L 825 1625 
L 2419 1625 
L 2419 4116 
z
M 2253 4666 
L 3047 4666 
L 3047 1625 
L 3713 1625 
L 3713 1100 
L 3047 1100 
L 3047 0 
L 2419 0 
L 2419 1100 
L 313 1100 
L 313 1709 
L 2253 4666 
z
" transform="scale(0.015625)"/>
      </defs>
      <use xlink:href="#DejaVuSans-34"/>
     </g>
    </g>
   </g>
   <g id="text_5">
    <g clip-path="url(#pf83d13f73b)">
     <!-- 5 -->
     <g transform="translate(108.467292 299.357213) scale(0.12 -0.12)">
      <defs>
       <path id="DejaVuSans-35" d="M 691 4666 
L 3169 4666 
L 3169 4134 
L 1269 4134 
L 1269 2991 
Q 1406 3038 1543 3061 
Q 1681 3084 1819 3084 
Q 2600 3084 3056 2656 
Q 3513 2228 3513 1497 
Q 3513 744 3044 326 
Q 2575 -91 1722 -91 
Q 1428 -91 1123 -41 
Q 819 9 494 109 
L 494 744 
Q 775 591 1075 516 
Q 1375 441 1709 441 
Q 2250 441 2565 725 
Q 2881 1009 2881 1497 
Q 2881 1984 2565 2268 
Q 2250 2553 1709 2553 
Q 1456 2553 1204 2497 
Q 953 2441 691 2322 
L 691 4666 
z
" transform="scale(0.015625)"/>
      </defs>
      <use xlink:href="#DejaVuSans-35"/>
     </g>
    </g>
   </g>
   <g id="text_6">
    <g clip-path="url(#pf83d13f73b)">
     <!-- 6 -->
     <g transform="translate(115.49473 318.921167) scale(0.12 -0.12)">
      <defs>
       <path id="DejaVuSans-36" d="M 2113 2584 
Q 1688 2584 1439 2293 
Q 1191 2003 1191 1497 
Q 1191 994 1439 701 
Q 1688 409 2113 409 
Q 2538 409 2786 701 
Q 3034 994 3034 1497 
Q 3034 2003 2786 2293 
Q 2538 2584 2113 2584 
z
M 3366 4563 
L 3366 3988 
Q 3128 4100 2886 4159 
Q 2644 4219 2406 4219 
Q 1781 4219 1451 3797 
Q 1122 3375 1075 2522 
Q 1259 2794 1537 2939 
Q 1816 3084 2150 3084 
Q 2853 3084 3261 2657 
Q 3669 2231 3669 1497 
Q 3669 778 3244 343 
Q 2819 -91 2113 -91 
Q 1303 -91 875 529 
Q 447 1150 447 2328 
Q 447 3434 972 4092 
Q 1497 4750 2381 4750 
Q 2619 4750 2861 4703 
Q 3103 4656 3366 4563 
z
" transform="scale(0.015625)"/>
      </defs>
      <use xlink:href="#DejaVuSans-36"/>
     </g>
    </g>
   </g>
   <g id="text_7">
    <g clip-path="url(#pf83d13f73b)">
     <!-- 7 -->
     <g transform="translate(231.16173 148.269709) scale(0.12 -0.12)">
      <defs>
       <path id="DejaVuSans-37" d="M 525 4666 
L 3525 4666 
L 3525 4397 
L 1831 0 
L 1172 0 
L 2766 4134 
L 525 4134 
L 525 4666 
z
" transform="scale(0.015625)"/>
      </defs>
      <use xlink:href="#DejaVuSans-37"/>
     </g>
    </g>
   </g>
   <g id="text_8">
    <g clip-path="url(#pf83d13f73b)">
     <!-- 8 -->
     <g transform="translate(352.717583 181.276269) scale(0.12 -0.12)">
      <defs>
       <path id="DejaVuSans-38" d="M 2034 2216 
Q 1584 2216 1326 1975 
Q 1069 1734 1069 1313 
Q 1069 891 1326 650 
Q 1584 409 2034 409 
Q 2484 409 2743 651 
Q 3003 894 3003 1313 
Q 3003 1734 2745 1975 
Q 2488 2216 2034 2216 
z
M 1403 2484 
Q 997 2584 770 2862 
Q 544 3141 544 3541 
Q 544 4100 942 4425 
Q 1341 4750 2034 4750 
Q 2731 4750 3128 4425 
Q 3525 4100 3525 3541 
Q 3525 3141 3298 2862 
Q 3072 2584 2669 2484 
Q 3125 2378 3379 2068 
Q 3634 1759 3634 1313 
Q 3634 634 3220 271 
Q 2806 -91 2034 -91 
Q 1263 -91 848 271 
Q 434 634 434 1313 
Q 434 1759 690 2068 
Q 947 2378 1403 2484 
z
M 1172 3481 
Q 1172 3119 1398 2916 
Q 1625 2713 2034 2713 
Q 2441 2713 2670 2916 
Q 2900 3119 2900 3481 
Q 2900 3844 2670 4047 
Q 2441 4250 2034 4250 
Q 1625 4250 1398 4047 
Q 1172 3844 1172 3481 
z
" transform="scale(0.015625)"/>
      </defs>
      <use xlink:href="#DejaVuSans-38"/>
     </g>
    </g>
   </g>
   <g id="text_9">
    <g clip-path="url(#pf83d13f73b)">
     <!-- 9 -->
     <g transform="translate(347.426737 113.057801) scale(0.12 -0.12)">
      <defs>
       <path id="DejaVuSans-39" d="M 703 97 
L 703 672 
Q 941 559 1184 500 
Q 1428 441 1663 441 
Q 2288 441 2617 861 
Q 2947 1281 2994 2138 
Q 2813 1869 2534 1725 
Q 2256 1581 1919 1581 
Q 1219 1581 811 2004 
Q 403 2428 403 3163 
Q 403 3881 828 4315 
Q 1253 4750 1959 4750 
Q 2769 4750 3195 4129 
Q 3622 3509 3622 2328 
Q 3622 1225 3098 567 
Q 2575 -91 1691 -91 
Q 1453 -91 1209 -44 
Q 966 3 703 97 
z
M 1959 2075 
Q 2384 2075 2632 2365 
Q 2881 2656 2881 3163 
Q 2881 3666 2632 3958 
Q 2384 4250 1959 4250 
Q 1534 4250 1286 3958 
Q 1038 3666 1038 3163 
Q 1038 2656 1286 2365 
Q 1534 2075 1959 2075 
z
" transform="scale(0.015625)"/>
      </defs>
      <use xlink:href="#DejaVuSans-39"/>
     </g>
    </g>
   </g>
   <g id="text_10">
    <g clip-path="url(#pf83d13f73b)">
     <!-- 10 -->
     <g transform="translate(247.87997 212.252619) scale(0.12 -0.12)">
      <defs>
       <path id="DejaVuSans-30" d="M 2034 4250 
Q 1547 4250 1301 3770 
Q 1056 3291 1056 2328 
Q 1056 1369 1301 889 
Q 1547 409 2034 409 
Q 2525 409 2770 889 
Q 3016 1369 3016 2328 
Q 3016 3291 2770 3770 
Q 2525 4250 2034 4250 
z
M 2034 4750 
Q 2819 4750 3233 4129 
Q 3647 3509 3647 2328 
Q 3647 1150 3233 529 
Q 2819 -91 2034 -91 
Q 1250 -91 836 529 
Q 422 1150 422 2328 
Q 422 3509 836 4129 
Q 1250 4750 2034 4750 
z
" transform="scale(0.015625)"/>
      </defs>
      <use xlink:href="#DejaVuSans-31"/>
      <use xlink:href="#DejaVuSans-30" x="63.623047"/>
     </g>
    </g>
   </g>
   <g id="text_11">
    <g clip-path="url(#pf83d13f73b)">
     <!-- 11 -->
     <g transform="translate(252.417475 70.22081) scale(0.12 -0.12)">
      <use xlink:href="#DejaVuSans-31"/>
      <use xlink:href="#DejaVuSans-31" x="63.623047"/>
     </g>
    </g>
   </g>
   <g id="text_12">
    <g clip-path="url(#pf83d13f73b)">
     <!-- 12 -->
     <g transform="translate(133.637816 94.942258) scale(0.12 -0.12)">
      <use xlink:href="#DejaVuSans-31"/>
      <use xlink:href="#DejaVuSans-32" x="63.623047"/>
     </g>
    </g>
   </g>
   <g id="text_13">
    <g clip-path="url(#pf83d13f73b)">
     <!-- 13 -->
     <g transform="translate(95.630123 163.075203) scale(0.12 -0.12)">
      <use xlink:href="#DejaVuSans-31"/>
      <use xlink:href="#DejaVuSans-33" x="63.623047"/>
     </g>
    </g>
   </g>
   <g id="text_14">
    <g clip-path="url(#pf83d13f73b)">
     <!-- 14 -->
     <g transform="translate(362.966762 204.148555) scale(0.12 -0.12)">
      <use xlink:href="#DejaVuSans-31"/>
      <use xlink:href="#DejaVuSans-34" x="63.623047"/>
     </g>
    </g>
   </g>
   <g id="text_15">
    <g clip-path="url(#pf83d13f73b)">
     <!-- 15 -->
     <g transform="translate(413.178223 178.716523) scale(0.12 -0.12)">
      <use xlink:href="#DejaVuSans-31"/>
      <use xlink:href="#DejaVuSans-35" x="63.623047"/>
     </g>
    </g>
   </g>
   <g id="text_16">
    <g clip-path="url(#pf83d13f73b)">
     <!-- 16 -->
     <g transform="translate(382.639707 212.899021) scale(0.12 -0.12)">
      <use xlink:href="#DejaVuSans-31"/>
      <use xlink:href="#DejaVuSans-36" x="63.623047"/>
     </g>
    </g>
   </g>
   <g id="text_17">
    <g clip-path="url(#pf83d13f73b)">
     <!-- 17 -->
     <g transform="translate(410.969505 192.061939) scale(0.12 -0.12)">
      <use xlink:href="#DejaVuSans-31"/>
      <use xlink:href="#DejaVuSans-37" x="63.623047"/>
     </g>
    </g>
   </g>
   <g id="text_18">
    <g clip-path="url(#pf83d13f73b)">
     <!-- 18 -->
     <g transform="translate(399.814921 202.843712) scale(0.12 -0.12)">
      <use xlink:href="#DejaVuSans-31"/>
      <use xlink:href="#DejaVuSans-38" x="63.623047"/>
     </g>
    </g>
   </g>
   <g id="text_19">
    <g clip-path="url(#pf83d13f73b)">
     <!-- 19 -->
     <g transform="translate(390.893252 171.733477) scale(0.12 -0.12)">
      <use xlink:href="#DejaVuSans-31"/>
      <use xlink:href="#DejaVuSans-39" x="63.623047"/>
     </g>
    </g>
   </g>
   <g id="text_20">
    <g clip-path="url(#pf83d13f73b)">
     <!-- 20 -->
     <g transform="translate(407.045539 114.660814) scale(0.12 -0.12)">
      <use xlink:href="#DejaVuSans-32"/>
      <use xlink:href="#DejaVuSans-30" x="63.623047"/>
     </g>
    </g>
   </g>
   <g id="text_21">
    <g clip-path="url(#pf83d13f73b)">
     <!-- 21 -->
     <g transform="translate(384.104644 121.926918) scale(0.12 -0.12)">
      <use xlink:href="#DejaVuSans-32"/>
      <use xlink:href="#DejaVuSans-31" x="63.623047"/>
     </g>
    </g>
   </g>
   <g id="text_22">
    <g clip-path="url(#pf83d13f73b)">
     <!-- 22 -->
     <g transform="translate(396.116253 89.366906) scale(0.12 -0.12)">
      <use xlink:href="#DejaVuSans-32"/>
      <use xlink:href="#DejaVuSans-32" x="63.623047"/>
     </g>
    </g>
   </g>
   <g id="text_23">
    <g clip-path="url(#pf83d13f73b)">
     <!-- 23 -->
     <g transform="translate(350.540892 89.350345) scale(0.12 -0.12)">
      <use xlink:href="#DejaVuSans-32"/>
      <use xlink:href="#DejaVuSans-33" x="63.623047"/>
     </g>
    </g>
   </g>
   <g id="text_24">
    <g clip-path="url(#pf83d13f73b)">
     <!-- 24 -->
     <g transform="translate(374.5664 84.031676) scale(0.12 -0.12)">
      <use xlink:href="#DejaVuSans-32"/>
      <use xlink:href="#DejaVuSans-34" x="63.623047"/>
     </g>
    </g>
   </g>
   <g id="text_25">
    <g clip-path="url(#pf83d13f73b)">
     <!-- 25 -->
     <g transform="translate(402.705912 101.69269) scale(0.12 -0.12)">
      <use xlink:href="#DejaVuSans-32"/>
      <use xlink:href="#DejaVuSans-35" x="63.623047"/>
     </g>
    </g>
   </g>
   <g id="text_26">
    <g clip-path="url(#pf83d13f73b)">
     <!-- 26 -->
     <g transform="translate(241.231088 246.398135) scale(0.12 -0.12)">
      <use xlink:href="#DejaVuSans-32"/>
      <use xlink:href="#DejaVuSans-36" x="63.623047"/>
     </g>
    </g>
   </g>
   <g id="text_27">
    <g clip-path="url(#pf83d13f73b)">
     <!-- 27 -->
     <g transform="translate(286.292969 223.813961) scale(0.12 -0.12)">
      <use xlink:href="#DejaVuSans-32"/>
      <use xlink:href="#DejaVuSans-37" x="63.623047"/>
     </g>
    </g>
   </g>
   <g id="text_28">
    <g clip-path="url(#pf83d13f73b)">
     <!-- 28 -->
     <g transform="translate(214.087449 213.826518) scale(0.12 -0.12)">
      <use xlink:href="#DejaVuSans-32"/>
      <use xlink:href="#DejaVuSans-38" x="63.623047"/>
     </g>
    </g>
   </g>
   <g id="text_29">
    <g clip-path="url(#pf83d13f73b)">
     <!-- 29 -->
     <g transform="translate(222.013757 236.083591) scale(0.12 -0.12)">
      <use xlink:href="#DejaVuSans-32"/>
      <use xlink:href="#DejaVuSans-39" x="63.623047"/>
     </g>
    </g>
   </g>
   <g id="text_30">
    <g clip-path="url(#pf83d13f73b)">
     <!-- 30 -->
     <g transform="translate(264.8364 245.581451) scale(0.12 -0.12)">
      <use xlink:href="#DejaVuSans-33"/>
      <use xlink:href="#DejaVuSans-30" x="63.623047"/>
     </g>
    </g>
   </g>
   <g id="text_31">
    <g clip-path="url(#pf83d13f73b)">
     <!-- 31 -->
     <g transform="translate(286.475233 239.487196) scale(0.12 -0.12)">
      <use xlink:href="#DejaVuSans-33"/>
      <use xlink:href="#DejaVuSans-31" x="63.623047"/>
     </g>
    </g>
   </g>
   <g id="text_32">
    <g clip-path="url(#pf83d13f73b)">
     <!-- 32 -->
     <g transform="translate(230.828188 35.267944) scale(0.12 -0.12)">
      <use xlink:href="#DejaVuSans-33"/>
      <use xlink:href="#DejaVuSans-32" x="63.623047"/>
     </g>
    </g>
   </g>
   <g id="text_33">
    <g clip-path="url(#pf83d13f73b)">
     <!-- 33 -->
     <g transform="translate(277.055651 33.301333) scale(0.12 -0.12)">
      <use xlink:href="#DejaVuSans-33"/>
      <use xlink:href="#DejaVuSans-33" x="63.623047"/>
     </g>
    </g>
   </g>
   <g id="text_34">
    <g clip-path="url(#pf83d13f73b)">
     <!-- 34 -->
     <g transform="translate(254.106407 34.319576) scale(0.12 -0.12)">
      <use xlink:href="#DejaVuSans-33"/>
      <use xlink:href="#DejaVuSans-34" x="63.623047"/>
     </g>
    </g>
   </g>
   <g id="text_35">
    <g clip-path="url(#pf83d13f73b)">
     <!-- 35 -->
     <g transform="translate(278.624197 51.970286) scale(0.12 -0.12)">
      <use xlink:href="#DejaVuSans-33"/>
      <use xlink:href="#DejaVuSans-35" x="63.623047"/>
     </g>
    </g>
   </g>
   <g id="text_36">
    <g clip-path="url(#pf83d13f73b)">
     <!-- 36 -->
     <g transform="translate(222.656785 49.265499) scale(0.12 -0.12)">
      <use xlink:href="#DejaVuSans-33"/>
      <use xlink:href="#DejaVuSans-36" x="63.623047"/>
     </g>
    </g>
   </g>
   <g id="text_37">
    <g clip-path="url(#pf83d13f73b)">
     <!-- 37 -->
     <g transform="translate(299.008544 44.325283) scale(0.12 -0.12)">
      <use xlink:href="#DejaVuSans-33"/>
      <use xlink:href="#DejaVuSans-37" x="63.623047"/>
     </g>
    </g>
   </g>
   <g id="text_38">
    <g clip-path="url(#pf83d13f73b)">
     <!-- 38 -->
     <g transform="translate(96.677015 64.955195) scale(0.12 -0.12)">
      <use xlink:href="#DejaVuSans-33"/>
      <use xlink:href="#DejaVuSans-38" x="63.623047"/>
     </g>
    </g>
   </g>
   <g id="text_39">
    <g clip-path="url(#pf83d13f73b)">
     <!-- 39 -->
     <g transform="translate(118.877462 60.063629) scale(0.12 -0.12)">
      <use xlink:href="#DejaVuSans-33"/>
      <use xlink:href="#DejaVuSans-39" x="63.623047"/>
     </g>
    </g>
   </g>
   <g id="text_40">
    <g clip-path="url(#pf83d13f73b)">
     <!-- 40 -->
     <g transform="translate(73.197685 86.045226) scale(0.12 -0.12)">
      <use xlink:href="#DejaVuSans-34"/>
      <use xlink:href="#DejaVuSans-30" x="63.623047"/>
     </g>
    </g>
   </g>
   <g id="text_41">
    <g clip-path="url(#pf83d13f73b)">
     <!-- 41 -->
     <g transform="translate(89.159884 97.77433) scale(0.12 -0.12)">
      <use xlink:href="#DejaVuSans-34"/>
      <use xlink:href="#DejaVuSans-31" x="63.623047"/>
     </g>
    </g>
   </g>
   <g id="text_42">
    <g clip-path="url(#pf83d13f73b)">
     <!-- 42 -->
     <g transform="translate(83.63589 74.617004) scale(0.12 -0.12)">
      <use xlink:href="#DejaVuSans-34"/>
      <use xlink:href="#DejaVuSans-32" x="63.623047"/>
     </g>
    </g>
   </g>
   <g id="text_43">
    <g clip-path="url(#pf83d13f73b)">
     <!-- 43 -->
     <g transform="translate(137.501545 70.212228) scale(0.12 -0.12)">
      <use xlink:href="#DejaVuSans-34"/>
      <use xlink:href="#DejaVuSans-33" x="63.623047"/>
     </g>
    </g>
   </g>
   <g id="text_44">
    <g clip-path="url(#pf83d13f73b)">
     <!-- 44 -->
     <g transform="translate(32.351777 175.474179) scale(0.12 -0.12)">
      <use xlink:href="#DejaVuSans-34"/>
      <use xlink:href="#DejaVuSans-34" x="63.623047"/>
     </g>
    </g>
   </g>
   <g id="text_45">
    <g clip-path="url(#pf83d13f73b)">
     <!-- 45 -->
     <g transform="translate(60.110108 146.783671) scale(0.12 -0.12)">
      <use xlink:href="#DejaVuSans-34"/>
      <use xlink:href="#DejaVuSans-35" x="63.623047"/>
     </g>
    </g>
   </g>
   <g id="text_46">
    <g clip-path="url(#pf83d13f73b)">
     <!-- 46 -->
     <g transform="translate(39.447466 163.899212) scale(0.12 -0.12)">
      <use xlink:href="#DejaVuSans-34"/>
      <use xlink:href="#DejaVuSans-36" x="63.623047"/>
     </g>
    </g>
   </g>
   <g id="text_47">
    <g clip-path="url(#pf83d13f73b)">
     <!-- 47 -->
     <g transform="translate(74.219278 186.659689) scale(0.12 -0.12)">
      <use xlink:href="#DejaVuSans-34"/>
      <use xlink:href="#DejaVuSans-37" x="63.623047"/>
     </g>
    </g>
   </g>
   <g id="text_48">
    <g clip-path="url(#pf83d13f73b)">
     <!-- 48 -->
     <g transform="translate(48.067299 186.274921) scale(0.12 -0.12)">
      <use xlink:href="#DejaVuSans-34"/>
      <use xlink:href="#DejaVuSans-38" x="63.623047"/>
     </g>
    </g>
   </g>
   <g id="text_49">
    <g clip-path="url(#pf83d13f73b)">
     <!-- 49 -->
     <g transform="translate(34.167474 150.786277) scale(0.12 -0.12)">
      <use xlink:href="#DejaVuSans-34"/>
      <use xlink:href="#DejaVuSans-39" x="63.623047"/>
     </g>
    </g>
   </g>
  </g>
 </g>
 <defs>
  <clipPath id="pf83d13f73b">
   <rect x="0" y="0" width="460.8" height="345.6"/>
  </clipPath>
 </defs>
</svg>
